<svg width="16" height="32" viewBox="0 0 16 32" fill="none" xmlns="http://www.w3.org/2000/svg">
<path d="M6.69998 12.7C6.31338 13.0866 5.68658 13.0866 5.29998 12.7V12.7C4.91338 12.3134 4.91338 11.6866 5.29998 11.3L7.89287 8.70708C8.28339 8.31656 8.28339 7.68339 7.89287 7.29287L5.29998 4.69998C4.91338 4.31338 4.91338 3.68658 5.29998 3.29998V3.29998C5.68658 2.91338 6.31338 2.91338 6.69998 3.29998L10.6929 7.29287C11.0834 7.68339 11.0834 8.31656 10.6929 8.70708L6.69998 12.7Z" fill="#2fb64c"/>
<path d="M6.69998 28.7C6.31338 29.0866 5.68658 29.0866 5.29998 28.7V28.7C4.91338 28.3134 4.91338 27.6866 5.29998 27.3L7.89287 24.7071C8.28339 24.3166 8.28339 23.6834 7.89287 23.2929L5.29998 20.7C4.91338 20.3134 4.91338 19.6866 5.29998 19.3V19.3C5.68658 18.9134 6.31338 18.9134 6.69998 19.3L10.6929 23.2929C11.0834 23.6834 11.0834 24.3166 10.6929 24.7071L6.69998 28.7Z" fill="#2fb64c"/>
</svg>
