<svg width="41" height="52" viewBox="0 0 41 52" fill="none" xmlns="http://www.w3.org/2000/svg">
<g filter="url(#filter0_d)">
<path d="M35.9559 11.8548L35.9562 11.8555C37.6234 17.2165 36.6993 22.769 33.4521 27.1186L20.1387 44.187L6.82468 27.1179C4.65065 24.2262 3.5 20.7733 3.5 17.1387C3.5 11.8666 6.03414 6.87443 10.2835 3.75162L10.2835 3.75164L10.2874 3.74872C13.1511 1.60088 16.5781 0.5 20.1387 0.5C21.8784 0.5 23.6744 0.781465 25.4226 1.32143C30.3801 2.8546 34.4227 6.89723 35.9559 11.8548Z" fill="#7ae856" stroke="white"/>
<circle cx="20.1387" cy="17.0508" r="12.4199" fill="white" stroke="white"/>
<path d="M26.0399 17.3791L17.2518 22.4491C16.9992 22.5948 16.6836 22.4125 16.6836 22.1209V11.9808C16.6836 11.6892 16.9992 11.5069 17.2518 11.6526L26.0399 16.7226C26.2927 16.8685 26.2927 17.2332 26.0399 17.3791Z" fill="#7ae856" stroke="white"/>
</g>
<defs>
<filter id="filter0_d" x="0" y="0" width="40.2698" height="52" filterUnits="userSpaceOnUse" color-interpolation-filters="sRGB">
<feFlood flood-opacity="0" result="BackgroundImageFix"/>
<feColorMatrix in="SourceAlpha" type="matrix" values="0 0 0 0 0 0 0 0 0 0 0 0 0 0 0 0 0 0 127 0"/>
<feOffset dy="4"/>
<feGaussianBlur stdDeviation="1.5"/>
<feColorMatrix type="matrix" values="0 0 0 0 0 0 0 0 0 0 0 0 0 0 0 0 0 0 0.15 0"/>
<feBlend mode="normal" in2="BackgroundImageFix" result="effect1_dropShadow"/>
<feBlend mode="normal" in="SourceGraphic" in2="effect1_dropShadow" result="shape"/>
</filter>
</defs>
</svg>
